<svg xmlns="http://www.w3.org/2000/svg" viewBox="0 0 500 500" width="100%" height="100%">
  <path fill="#00BFFF" d="M250,100c-20,0-40,5-60,15c-20,10-35,25-45,45c-10,20-15,40-15,60s5,40,15,60c10,20,25,35,45,45
    c20,10,40,15,60,15s40-5,60-15c20-10,35-25,45-45c10-20,15-40,15-60s-5-40-15-60c-10-20-25-35-45-45
    C290,105,270,100,250,100z M300,220c-5,10-12.5,17.5-22.5,22.5c-10,5-20,5-30,0c-10-5-17.5-12.5-22.5-22.5
    c-5-10-5-20,0-30c5-10,12.5-17.5,22.5-22.5c10-5,20-5,30,0c10,5,17.5,12.5,22.5,22.5C305,200,305,210,300,220z"/>
  <path fill="#00BFFF" d="M380,150c-10-20-25-35-45-45c-20-10-40-15-60-15s-40,5-60,15c-20,10-35,25-45,45
    c-10,20-15,40-15,60s5,40,15,60c10,20,25,35,45,45c20,10,40,15,60,15s40-5,60-15c20-10,35-25,45-45
    c10-20,15-40,15-60S390,170,380,150z M350,240c-8,16-20,28-36,36c-16,8-32,8-48,0c-16-8-28-20-36-36
    c-8-16-8-32,0-48c8-16,20-28,36-36c16-8,32-8,48,0c16,8,28,20,36,36C358,208,358,224,350,240z"/>
  <path fill="#00BFFF" d="M150,220c0-10,2-20,6-30c4-10,10-18,18-24c8-6,16-10,24-12c8-2,16-2,24,0
    c8,2,16,6,24,12c8,6,14,14,18,24c4,10,6,20,6,30c0,10-2,20-6,30c-4,10-10,18-18,24c-8,6-16,10-24,12
    c-8,2-16,2-24,0c-8-2-16-6-24-12c-8-6-14-14-18-24C152,240,150,230,150,220z M180,220c0,5,1,10,3,15
    c2,5,5,9,9,12c4,3,8,5,12,6c4,1,8,1,12,0c4-1,8-3,12-6c4-3,7-7,9-12c2-5,3-10,3-15c0-5-1-10-3-15
    c-2-5-5-9-9-12c-4-3-8-5-12-6c-4-1-8-1-12,0c-4,1-8,3-12,6c-4,3-7,7-9,12C181,210,180,215,180,220z"/>
</svg>