<svg xmlns="http://www.w3.org/2000/svg" viewBox="0 0 128 128" width="100%" height="100%">
  <defs>
    <linearGradient id="pegasusGlow" x1="0" y1="0" x2="1" y2="1">
      <stop offset="0%" stop-color="#38bdf8"/>
      <stop offset="100%" stop-color="#3b82f6"/>
    </linearGradient>
  </defs>

  <!-- Stylized Pegasus: wing and head inspired by the provided image -->
  <g fill="url(#pegasusGlow)" stroke="none">
    <!-- Wing feathers -->
    <path d="M22 46 C40 34 58 30 72 34 C52 42 44 50 36 64 C32 70 28 76 24 80 C20 76 18 70 20 62 C22 54 24 50 22 46 Z"/>
    <path d="M30 60 C46 48 62 44 76 48 C60 56 52 64 46 76 C42 82 38 88 34 92 C30 88 28 82 30 74 C32 66 34 62 30 60 Z"/>
    <path d="M38 74 C54 62 70 58 84 62 C68 70 60 78 54 90 C50 96 46 102 42 106 C38 102 36 96 38 88 C40 80 42 76 38 74 Z"/>

    <!-- Horse head and neck -->
    <path d="M86 40 C92 36 98 36 104 40 C108 42 110 48 108 52 C106 56 102 58 98 58 C96 60 92 62 90 66 C88 70 86 76 84 80 C82 84 76 86 72 84 C70 82 72 78 74 74 C76 70 78 66 80 64 C82 60 82 54 82 50 C82 46 84 42 86 40 Z"/>
    <!-- Snout -->
    <circle cx="104" cy="52" r="3" fill="#60a5fa"/>
  </g>

  <!-- Slight outer glow -->
  <g fill="none" stroke="#60a5fa" stroke-opacity="0.35">
    <path d="M18 44 C40 28 64 24 84 30"/>
    <path d="M34 104 C40 98 50 86 56 72"/>
  </g>
</svg>